#N canvas 0 25 1440 847 12;
#X obj 328 -112 notein;
#X floatatom 327 -66 5 0 0 0 - - -;
#X floatatom 347 -36 5 0 0 0 - - -;
#X floatatom 367 0 5 0 0 0 - - -;
#X obj 322 -7 s r;
#X obj 144 988 phasor~;
#X obj 144 1026 *~ 100;
#X obj 191 1026 -~ 0.5;
#X obj 191 1053 /~ 2;
#X obj 191 1082 cos~;
#X obj 144 1053 vd~ a;
#X obj 144 1115 *~;
#X obj 354 1025 *~ 100;
#X obj 401 1025 -~ 0.5;
#X obj 401 1052 /~ 2;
#X obj 401 1081 cos~;
#X obj 354 1114 *~;
#X obj 354 1052 vd~ b;
#X floatatom 87 907 5 0 0 0 - - -;
#X obj 354 996 expr~ fmod($v1 \, 1);
#X obj 354 971 +~ 0.5;
#X obj 234 684 adc~ 1;
#X obj 223 989 delwrite~ a 200;
#X obj 243 1023 delwrite~ b 200;
#X floatatom 351 636 5 0 0 0 - - -;
#X floatatom 451 633 5 0 0 0 - - -;
#X obj 259 1202 *~;
#X text 159 738 C;
#X obj 325 679 mtof;
#X obj 451 666 * 2;
#X floatatom 451 690 5 0 0 0 - - -;
#X floatatom 451 751 5 0 0 0 - - -;
#X obj 451 727 -;
#X obj 385 723 bng 15 250 50 0 empty empty empty 17 7 0 10 -262144
-1 -1;
#X obj 364 662 loadbang;
#X obj 320 650 bng 15 250 50 0 empty empty empty 17 7 0 10 -262144
-1 -1;
#X obj 412 809 pow;
#X floatatom 412 833 5 0 0 0 - - -;
#X floatatom 316 827 5 0 0 0 - - -;
#X obj 283 860 *;
#X floatatom 283 884 5 0 0 0 - - -;
#X obj 367 896 -;
#X floatatom 367 920 5 0 0 0 - - -;
#X obj 414 927 / 100;
#X floatatom 442 953 5 0 0 0 - - -;
#X obj 494 887 *;
#X floatatom 494 911 5 0 0 0 - - -;
#X obj 427 874 * 2;
#X floatatom 427 898 5 0 0 0 - - -;
#X obj 481 851 -;
#X obj 452 607 -;
#X floatatom 521 661 5 0 0 0 - - -;
#X floatatom 494 958 5 0 0 0 - - -;
#X floatatom 509 751 5 0 0 0 - - -;
#X obj 509 727 -;
#X obj 488 806 pow;
#X floatatom 574 866 5 0 0 0 - - -;
#X obj 583 932 *;
#X msg 327 757 1.0595;
#X msg 499 699 83;
#X msg 396 763 1.0601;
#X obj 366 687 metro 10;
#X obj 745 992 phasor~;
#X obj 745 1030 *~ 100;
#X obj 792 1030 -~ 0.5;
#X obj 792 1057 /~ 2;
#X obj 792 1086 cos~;
#X obj 745 1057 vd~ a;
#X obj 745 1119 *~;
#X obj 955 1029 *~ 100;
#X obj 1002 1029 -~ 0.5;
#X obj 1002 1056 /~ 2;
#X obj 1002 1085 cos~;
#X obj 955 1118 *~;
#X obj 955 1056 vd~ b;
#X floatatom 688 911 5 0 0 0 - - -;
#X obj 955 1000 expr~ fmod($v1 \, 1);
#X obj 955 975 +~ 0.5;
#X obj 835 688 adc~ 1;
#X obj 824 993 delwrite~ a 200;
#X obj 844 1027 delwrite~ b 200;
#X floatatom 948 617 5 0 0 0 - - -;
#X floatatom 1052 637 5 0 0 0 - - -;
#X obj 860 1206 *~;
#X text 760 742 C;
#X obj 926 683 mtof;
#X obj 1052 670 * 2;
#X floatatom 1052 694 5 0 0 0 - - -;
#X floatatom 1052 755 5 0 0 0 - - -;
#X obj 1052 731 -;
#X obj 986 727 bng 15 250 50 0 empty empty empty 17 7 0 10 -262144
-1 -1;
#X obj 965 666 loadbang;
#X obj 921 654 bng 15 250 50 0 empty empty empty 17 7 0 10 -262144
-1 -1;
#X obj 1013 813 pow;
#X floatatom 1013 837 5 0 0 0 - - -;
#X floatatom 917 831 5 0 0 0 - - -;
#X obj 884 864 *;
#X floatatom 884 888 5 0 0 0 - - -;
#X obj 968 900 -;
#X floatatom 968 924 5 0 0 0 - - -;
#X obj 1015 931 / 100;
#X floatatom 1043 957 5 0 0 0 - - -;
#X obj 1095 891 *;
#X floatatom 1095 915 5 0 0 0 - - -;
#X obj 1028 878 * 2;
#X floatatom 1028 902 5 0 0 0 - - -;
#X obj 1082 855 -;
#X obj 1053 611 -;
#X floatatom 1105 661 5 0 0 0 - - -;
#X floatatom 1095 962 5 0 0 0 - - -;
#X floatatom 1110 755 5 0 0 0 - - -;
#X obj 1110 731 -;
#X obj 1089 810 pow;
#X floatatom 1175 870 5 0 0 0 - - -;
#X obj 1184 936 *;
#X msg 928 761 1.0595;
#X msg 1100 703 83;
#X msg 997 767 1.0601;
#X obj 967 691 metro 10;
#X obj 569 -139 r Np;
#X floatatom 623 -31 5 0 0 0 - - -;
#X msg 599 -57 0;
#X obj 691 -80 + 1;
#X floatatom 691 -56 5 0 0 0 - - -;
#X obj 684 -105 f;
#X obj 682 -127 bng 15 250 50 0 empty empty empty 17 7 0 10 -262144
-1 -1;
#X msg 717 -137 0;
#X obj 713 -160 loadbang;
#X floatatom 543 70 5 0 0 0 - - -;
#X floatatom 591 70 5 0 0 0 - - -;
#X floatatom 638 72 5 0 0 0 - - -;
#X floatatom 682 72 5 0 0 0 - - -;
#X obj 683 47 f;
#X obj 635 46 f;
#X obj 587 46 f;
#X obj 544 45 f;
#X obj 543 93 s S1;
#X obj 591 93 s S2;
#X obj 638 95 s S3;
#X obj 682 95 s S4;
#X obj 521 636 r S1;
#X obj 1111 637 r S2;
#X obj 77 1712 phasor~;
#X obj 77 1750 *~ 100;
#X obj 124 1750 -~ 0.5;
#X obj 124 1777 /~ 2;
#X obj 124 1806 cos~;
#X obj 77 1777 vd~ a;
#X obj 77 1839 *~;
#X obj 287 1749 *~ 100;
#X obj 334 1749 -~ 0.5;
#X obj 334 1776 /~ 2;
#X obj 334 1805 cos~;
#X obj 287 1838 *~;
#X obj 287 1776 vd~ b;
#X floatatom 20 1631 5 0 0 0 - - -;
#X obj 287 1720 expr~ fmod($v1 \, 1);
#X obj 287 1695 +~ 0.5;
#X obj 167 1408 adc~ 1;
#X obj 156 1713 delwrite~ a 200;
#X obj 176 1747 delwrite~ b 200;
#X floatatom 284 1360 5 0 0 0 - - -;
#X floatatom 384 1357 5 0 0 0 - - -;
#X obj 192 1926 *~;
#X text 92 1462 C;
#X obj 258 1403 mtof;
#X obj 384 1390 * 2;
#X floatatom 384 1414 5 0 0 0 - - -;
#X floatatom 384 1475 5 0 0 0 - - -;
#X obj 384 1451 -;
#X obj 318 1447 bng 15 250 50 0 empty empty empty 17 7 0 10 -262144
-1 -1;
#X obj 297 1386 loadbang;
#X obj 253 1374 bng 15 250 50 0 empty empty empty 17 7 0 10 -262144
-1 -1;
#X obj 345 1533 pow;
#X floatatom 345 1557 5 0 0 0 - - -;
#X floatatom 249 1551 5 0 0 0 - - -;
#X obj 216 1584 *;
#X floatatom 216 1608 5 0 0 0 - - -;
#X obj 300 1620 -;
#X floatatom 300 1644 5 0 0 0 - - -;
#X obj 347 1651 / 100;
#X floatatom 375 1677 5 0 0 0 - - -;
#X obj 427 1611 *;
#X floatatom 427 1635 5 0 0 0 - - -;
#X obj 360 1598 * 2;
#X floatatom 360 1622 5 0 0 0 - - -;
#X obj 414 1575 -;
#X obj 385 1331 -;
#X floatatom 411 1301 5 0 0 0 - - -;
#X floatatom 427 1682 5 0 0 0 - - -;
#X floatatom 442 1475 5 0 0 0 - - -;
#X obj 442 1451 -;
#X obj 437 1387 int;
#X obj 421 1530 pow;
#X floatatom 507 1590 5 0 0 0 - - -;
#X obj 516 1656 *;
#X msg 260 1481 1.0595;
#X msg 432 1423 83;
#X obj 437 1354 + 0.4999;
#X msg 329 1487 1.0601;
#X obj 299 1411 metro 10;
#X obj 716 1737 phasor~;
#X obj 716 1775 *~ 100;
#X obj 763 1775 -~ 0.5;
#X obj 763 1802 /~ 2;
#X obj 763 1831 cos~;
#X obj 716 1802 vd~ a;
#X obj 716 1864 *~;
#X obj 926 1774 *~ 100;
#X obj 973 1774 -~ 0.5;
#X obj 973 1801 /~ 2;
#X obj 973 1830 cos~;
#X obj 926 1863 *~;
#X obj 926 1801 vd~ b;
#X floatatom 659 1656 5 0 0 0 - - -;
#X obj 926 1745 expr~ fmod($v1 \, 1);
#X obj 926 1720 +~ 0.5;
#X obj 806 1433 adc~ 1;
#X obj 795 1738 delwrite~ a 200;
#X obj 815 1772 delwrite~ b 200;
#X floatatom 923 1385 5 0 0 0 - - -;
#X floatatom 1023 1382 5 0 0 0 - - -;
#X obj 831 1951 *~;
#X text 731 1487 C;
#X obj 897 1428 mtof;
#X obj 1023 1415 * 2;
#X floatatom 1023 1439 5 0 0 0 - - -;
#X floatatom 1023 1500 5 0 0 0 - - -;
#X obj 1023 1476 -;
#X obj 957 1472 bng 15 250 50 0 empty empty empty 17 7 0 10 -262144
-1 -1;
#X obj 936 1411 loadbang;
#X obj 892 1399 bng 15 250 50 0 empty empty empty 17 7 0 10 -262144
-1 -1;
#X obj 984 1558 pow;
#X floatatom 984 1582 5 0 0 0 - - -;
#X floatatom 888 1576 5 0 0 0 - - -;
#X obj 855 1609 *;
#X floatatom 855 1633 5 0 0 0 - - -;
#X obj 939 1645 -;
#X floatatom 939 1669 5 0 0 0 - - -;
#X obj 986 1676 / 100;
#X floatatom 1014 1702 5 0 0 0 - - -;
#X obj 1066 1636 *;
#X floatatom 1066 1660 5 0 0 0 - - -;
#X obj 999 1623 * 2;
#X floatatom 999 1647 5 0 0 0 - - -;
#X obj 1053 1600 -;
#X obj 1024 1356 -;
#X floatatom 1050 1326 5 0 0 0 - - -;
#X floatatom 1066 1707 5 0 0 0 - - -;
#X floatatom 1081 1500 5 0 0 0 - - -;
#X obj 1081 1476 -;
#X obj 1076 1412 int;
#X obj 1060 1555 pow;
#X floatatom 1146 1615 5 0 0 0 - - -;
#X obj 1155 1681 *;
#X msg 899 1506 1.0595;
#X msg 1071 1448 83;
#X obj 1076 1379 + 0.4999;
#X msg 968 1512 1.0601;
#X obj 938 1436 metro 10;
#X obj 1052 1298 r S4;
#X obj 411 1268 r S3;
#X obj 502 119 value a;
#X obj 559 119 value b;
#X obj 615 120 value c;
#X obj 674 121 value d;
#X obj 127 192 value f;
#X obj 61 373 expr if(a == e \, 1 \, 0);
#X floatatom 61 397 5 0 0 0 - - -;
#X floatatom 502 143 5 0 0 0 - - -;
#X msg 393 -110 bang;
#X obj 410 -57 value e;
#X floatatom 410 -33 5 0 0 0 - - -;
#X obj 393 -86 s bang;
#X obj 59 343 r bang;
#X obj 79 422 value g;
#X floatatom 62 501 5 0 0 0 - - -;
#X obj 62 539 s S1T;
#X obj 323 1170 r S1T;
#X floatatom 236 396 5 0 0 0 - - -;
#X obj 234 342 r bang;
#X floatatom 237 500 5 0 0 0 - - -;
#X obj 236 372 expr if(b == e \, 1 \, 0);
#X obj 272 419 value h;
#X obj 238 540 s S2T;
#X obj 916 1181 r S2T;
#X obj 256 1894 r S3T;
#X obj 895 1919 r S4T;
#X floatatom 396 393 5 0 0 0 - - -;
#X obj 394 339 r bang;
#X floatatom 397 497 5 0 0 0 - - -;
#X floatatom 560 388 5 0 0 0 - - -;
#X obj 558 334 r bang;
#X floatatom 561 492 5 0 0 0 - - -;
#X obj 396 369 expr if(c == e \, 1 \, 0);
#X obj 560 364 expr if(d == e \, 1 \, 0);
#X obj 398 537 s S3T;
#X obj 562 532 s S4T;
#X obj 165 162 r bang;
#X obj 237 476 expr if(h <= f \, 1 \, 0);
#X obj 397 473 expr if(i <= f \, 1 \, 0);
#X obj 561 468 expr if(j <= f \, 1 \, 0);
#X floatatom 127 216 5 0 0 0 - - -;
#X obj 62 477 expr if(g <= f \, 1 \, 0);
#X obj 423 421 value i;
#X obj 582 411 value j;
#X obj 61 449 sel 1;
#X obj 237 445 sel 1;
#X obj 388 439 sel 1;
#X obj 550 440 sel 1;
#X obj 78 105 r r;
#X obj 67 137 sel 0;
#X floatatom 585 -105 5 0 0 0 - - -;
#X msg 59 174 0;
#X msg 103 165 1;
#X obj 126 244 sel 0;
#X obj 676 617 sigmund~;
#X obj 675 585 adc~;
#X floatatom 676 641 5 0 0 0 - - -;
#X obj 676 664 s sigmund;
#X obj 946 591 r sigmund;
#X obj 349 605 r sigmund;
#X obj 284 1330 r sigmund;
#X obj 921 1357 r sigmund;
#X obj 150 -108 expr if (f == 1 \, 1 \, 0);
#X floatatom 187 -72 5 0 0 0 - - -;
#X obj 160 -138 r bang;
#X floatatom 262 22 5 0 0 0 - - -;
#X obj 261 -68 r bang;
#X obj 605 -83 sel 0;
#X obj 265 51 moses 0.1;
#X floatatom 382 67 5 0 0 0 - - -;
#X obj 265 -20 *;
#X obj 384 104 f;
#X obj 194 -15 sel 1;
#X obj 384 132 s Np;
#X floatatom 559 143 5 0 0 0 - - -;
#X floatatom 615 144 5 0 0 0 - - -;
#X floatatom 674 145 5 0 0 0 - - -;
#X obj 695 -27 sel 1 2 3 4;
#X text 882 -148 Jacobea Synthesisers Harmoniser 3000;
#X text 1214 -144 Beta 8;
#X obj 531 1843 rev1~;
#X obj 192 1957 throw~ S3;
#X obj 831 1982 throw~ S4;
#X obj 860 1237 throw~ S2;
#X obj 259 1233 throw~ S1;
#X obj 487 1702 catch~ S1;
#X obj 557 1813 hsl 128 15 0 10 0 0 empty empty empty -2 -8 0 10 -262144
-1 -1 0 1;
#X obj 511 1936 dac~;
#X obj 498 1724 catch~ S2;
#X obj 520 1747 catch~ S3;
#X obj 541 1770 catch~ S4;
#X obj 528 1892 *~;
#X obj 430 1881 *~;
#X obj 348 1933 hsl 128 15 0 1 0 0 empty empty empty -2 -8 0 10 -262144
-1 -1 5600 1;
#X obj 577 1918 hsl 128 15 0 1 0 0 empty empty empty -2 -8 0 10 -262144
-1 -1 0 1;
#X connect 0 0 1 0;
#X connect 0 0 270 0;
#X connect 0 1 2 0;
#X connect 0 2 3 0;
#X connect 1 0 271 0;
#X connect 1 0 332 1;
#X connect 2 0 4 0;
#X connect 5 0 6 0;
#X connect 5 0 7 0;
#X connect 5 0 20 0;
#X connect 6 0 10 0;
#X connect 7 0 8 0;
#X connect 8 0 9 0;
#X connect 9 0 11 1;
#X connect 10 0 11 0;
#X connect 11 0 26 0;
#X connect 12 0 17 0;
#X connect 13 0 14 0;
#X connect 14 0 15 0;
#X connect 15 0 16 1;
#X connect 16 0 26 0;
#X connect 17 0 16 0;
#X connect 18 0 5 0;
#X connect 19 0 12 0;
#X connect 19 0 13 0;
#X connect 20 0 19 0;
#X connect 21 0 22 0;
#X connect 21 0 23 0;
#X connect 24 0 28 0;
#X connect 24 0 50 0;
#X connect 25 0 29 0;
#X connect 25 0 32 0;
#X connect 26 0 346 0;
#X connect 28 0 38 0;
#X connect 29 0 30 0;
#X connect 30 0 32 1;
#X connect 31 0 36 1;
#X connect 32 0 31 0;
#X connect 33 0 58 0;
#X connect 33 0 59 0;
#X connect 33 0 60 0;
#X connect 34 0 61 0;
#X connect 35 0 61 0;
#X connect 36 0 37 0;
#X connect 37 0 39 1;
#X connect 37 0 47 0;
#X connect 37 0 49 0;
#X connect 38 0 39 0;
#X connect 38 0 41 1;
#X connect 39 0 40 0;
#X connect 40 0 41 0;
#X connect 41 0 42 0;
#X connect 42 0 43 0;
#X connect 43 0 44 0;
#X connect 44 0 45 1;
#X connect 45 0 46 0;
#X connect 46 0 57 0;
#X connect 47 0 48 0;
#X connect 48 0 49 1;
#X connect 49 0 45 0;
#X connect 50 0 25 0;
#X connect 51 0 50 1;
#X connect 51 0 54 1;
#X connect 52 0 5 0;
#X connect 53 0 55 1;
#X connect 54 0 53 0;
#X connect 55 0 56 0;
#X connect 56 0 57 1;
#X connect 57 0 52 0;
#X connect 58 0 36 0;
#X connect 59 0 54 0;
#X connect 60 0 55 0;
#X connect 61 0 33 0;
#X connect 62 0 63 0;
#X connect 62 0 64 0;
#X connect 62 0 77 0;
#X connect 63 0 67 0;
#X connect 64 0 65 0;
#X connect 65 0 66 0;
#X connect 66 0 68 1;
#X connect 67 0 68 0;
#X connect 68 0 83 0;
#X connect 69 0 74 0;
#X connect 70 0 71 0;
#X connect 71 0 72 0;
#X connect 72 0 73 1;
#X connect 73 0 83 0;
#X connect 74 0 73 0;
#X connect 75 0 62 0;
#X connect 76 0 69 0;
#X connect 76 0 70 0;
#X connect 77 0 76 0;
#X connect 78 0 79 0;
#X connect 78 0 80 0;
#X connect 81 0 85 0;
#X connect 81 0 107 0;
#X connect 82 0 86 0;
#X connect 82 0 89 0;
#X connect 83 0 345 0;
#X connect 85 0 95 0;
#X connect 86 0 87 0;
#X connect 87 0 89 1;
#X connect 88 0 93 1;
#X connect 89 0 88 0;
#X connect 90 0 115 0;
#X connect 90 0 116 0;
#X connect 90 0 117 0;
#X connect 91 0 118 0;
#X connect 92 0 118 0;
#X connect 93 0 94 0;
#X connect 94 0 96 1;
#X connect 94 0 104 0;
#X connect 94 0 106 0;
#X connect 95 0 96 0;
#X connect 95 0 98 1;
#X connect 96 0 97 0;
#X connect 97 0 98 0;
#X connect 98 0 99 0;
#X connect 99 0 100 0;
#X connect 100 0 101 0;
#X connect 101 0 102 1;
#X connect 102 0 103 0;
#X connect 103 0 114 0;
#X connect 104 0 105 0;
#X connect 105 0 106 1;
#X connect 106 0 102 0;
#X connect 107 0 82 0;
#X connect 108 0 107 1;
#X connect 108 0 111 1;
#X connect 109 0 62 0;
#X connect 110 0 112 1;
#X connect 111 0 110 0;
#X connect 112 0 113 0;
#X connect 113 0 114 1;
#X connect 114 0 109 0;
#X connect 115 0 93 0;
#X connect 116 0 111 0;
#X connect 117 0 112 0;
#X connect 118 0 90 0;
#X connect 119 0 312 0;
#X connect 120 0 135 1;
#X connect 120 0 134 1;
#X connect 120 0 133 1;
#X connect 120 0 132 1;
#X connect 121 0 120 0;
#X connect 122 0 123 0;
#X connect 123 0 124 1;
#X connect 123 0 339 0;
#X connect 124 0 122 0;
#X connect 125 0 124 0;
#X connect 126 0 124 1;
#X connect 127 0 126 0;
#X connect 128 0 136 0;
#X connect 128 0 262 0;
#X connect 129 0 137 0;
#X connect 129 0 263 0;
#X connect 130 0 138 0;
#X connect 130 0 264 0;
#X connect 131 0 139 0;
#X connect 131 0 265 0;
#X connect 132 0 131 0;
#X connect 133 0 130 0;
#X connect 134 0 129 0;
#X connect 135 0 128 0;
#X connect 140 0 51 0;
#X connect 141 0 108 0;
#X connect 142 0 143 0;
#X connect 142 0 144 0;
#X connect 142 0 157 0;
#X connect 143 0 147 0;
#X connect 144 0 145 0;
#X connect 145 0 146 0;
#X connect 146 0 148 1;
#X connect 147 0 148 0;
#X connect 148 0 163 0;
#X connect 149 0 154 0;
#X connect 150 0 151 0;
#X connect 151 0 152 0;
#X connect 152 0 153 1;
#X connect 153 0 163 0;
#X connect 154 0 153 0;
#X connect 155 0 142 0;
#X connect 156 0 149 0;
#X connect 156 0 150 0;
#X connect 157 0 156 0;
#X connect 158 0 159 0;
#X connect 158 0 160 0;
#X connect 161 0 165 0;
#X connect 161 0 187 0;
#X connect 162 0 166 0;
#X connect 162 0 169 0;
#X connect 163 0 343 0;
#X connect 165 0 175 0;
#X connect 166 0 167 0;
#X connect 167 0 169 1;
#X connect 168 0 173 1;
#X connect 169 0 168 0;
#X connect 170 0 196 0;
#X connect 170 0 197 0;
#X connect 170 0 199 0;
#X connect 171 0 200 0;
#X connect 172 0 200 0;
#X connect 173 0 174 0;
#X connect 174 0 176 1;
#X connect 174 0 184 0;
#X connect 174 0 186 0;
#X connect 175 0 176 0;
#X connect 175 0 178 1;
#X connect 176 0 177 0;
#X connect 177 0 178 0;
#X connect 178 0 179 0;
#X connect 179 0 180 0;
#X connect 180 0 181 0;
#X connect 181 0 182 1;
#X connect 182 0 183 0;
#X connect 183 0 195 0;
#X connect 184 0 185 0;
#X connect 185 0 186 1;
#X connect 186 0 182 0;
#X connect 187 0 162 0;
#X connect 188 0 187 1;
#X connect 188 0 198 0;
#X connect 189 0 142 0;
#X connect 190 0 193 1;
#X connect 191 0 190 0;
#X connect 192 0 191 1;
#X connect 193 0 194 0;
#X connect 194 0 195 1;
#X connect 195 0 189 0;
#X connect 196 0 173 0;
#X connect 197 0 191 0;
#X connect 198 0 192 0;
#X connect 199 0 193 0;
#X connect 200 0 170 0;
#X connect 201 0 202 0;
#X connect 201 0 203 0;
#X connect 201 0 216 0;
#X connect 202 0 206 0;
#X connect 203 0 204 0;
#X connect 204 0 205 0;
#X connect 205 0 207 1;
#X connect 206 0 207 0;
#X connect 207 0 222 0;
#X connect 208 0 213 0;
#X connect 209 0 210 0;
#X connect 210 0 211 0;
#X connect 211 0 212 1;
#X connect 212 0 222 0;
#X connect 213 0 212 0;
#X connect 214 0 201 0;
#X connect 215 0 208 0;
#X connect 215 0 209 0;
#X connect 216 0 215 0;
#X connect 217 0 218 0;
#X connect 217 0 219 0;
#X connect 220 0 224 0;
#X connect 220 0 246 0;
#X connect 221 0 225 0;
#X connect 221 0 228 0;
#X connect 222 0 344 0;
#X connect 224 0 234 0;
#X connect 225 0 226 0;
#X connect 226 0 228 1;
#X connect 227 0 232 1;
#X connect 228 0 227 0;
#X connect 229 0 255 0;
#X connect 229 0 256 0;
#X connect 229 0 258 0;
#X connect 230 0 259 0;
#X connect 231 0 259 0;
#X connect 232 0 233 0;
#X connect 233 0 235 1;
#X connect 233 0 243 0;
#X connect 233 0 245 0;
#X connect 234 0 235 0;
#X connect 234 0 237 1;
#X connect 235 0 236 0;
#X connect 236 0 237 0;
#X connect 237 0 238 0;
#X connect 238 0 239 0;
#X connect 239 0 240 0;
#X connect 240 0 241 1;
#X connect 241 0 242 0;
#X connect 242 0 254 0;
#X connect 243 0 244 0;
#X connect 244 0 245 1;
#X connect 245 0 241 0;
#X connect 246 0 221 0;
#X connect 247 0 246 1;
#X connect 247 0 257 0;
#X connect 248 0 201 0;
#X connect 249 0 252 1;
#X connect 250 0 249 0;
#X connect 251 0 250 1;
#X connect 252 0 253 0;
#X connect 253 0 254 1;
#X connect 254 0 248 0;
#X connect 255 0 232 0;
#X connect 256 0 250 0;
#X connect 257 0 251 0;
#X connect 258 0 252 0;
#X connect 259 0 229 0;
#X connect 260 0 247 0;
#X connect 261 0 188 0;
#X connect 262 0 269 0;
#X connect 263 0 336 0;
#X connect 264 0 337 0;
#X connect 265 0 338 0;
#X connect 266 0 302 0;
#X connect 267 0 268 0;
#X connect 268 0 275 0;
#X connect 268 0 306 0;
#X connect 270 0 271 0;
#X connect 270 0 273 0;
#X connect 271 0 272 0;
#X connect 274 0 267 0;
#X connect 276 0 277 0;
#X connect 278 0 26 1;
#X connect 279 0 283 0;
#X connect 279 0 307 0;
#X connect 280 0 282 0;
#X connect 281 0 284 0;
#X connect 282 0 279 0;
#X connect 285 0 83 1;
#X connect 286 0 163 1;
#X connect 287 0 222 1;
#X connect 288 0 304 0;
#X connect 288 0 308 0;
#X connect 289 0 294 0;
#X connect 290 0 296 0;
#X connect 291 0 305 0;
#X connect 291 0 309 0;
#X connect 292 0 295 0;
#X connect 293 0 297 0;
#X connect 294 0 288 0;
#X connect 295 0 291 0;
#X connect 298 0 266 0;
#X connect 299 0 281 0;
#X connect 300 0 290 0;
#X connect 301 0 293 0;
#X connect 302 0 315 0;
#X connect 303 0 276 0;
#X connect 306 0 303 0;
#X connect 307 0 299 0;
#X connect 308 0 300 0;
#X connect 309 0 301 0;
#X connect 310 0 311 0;
#X connect 311 0 313 0;
#X connect 311 1 314 0;
#X connect 312 0 329 0;
#X connect 313 0 266 0;
#X connect 314 0 266 0;
#X connect 316 0 318 0;
#X connect 317 0 316 0;
#X connect 318 0 319 0;
#X connect 320 0 81 0;
#X connect 321 0 24 0;
#X connect 322 0 161 0;
#X connect 323 0 220 0;
#X connect 324 0 325 0;
#X connect 325 0 332 0;
#X connect 325 0 334 0;
#X connect 326 0 324 0;
#X connect 327 0 330 0;
#X connect 328 0 332 0;
#X connect 329 0 121 0;
#X connect 329 1 120 0;
#X connect 329 1 125 0;
#X connect 330 1 331 0;
#X connect 331 0 333 1;
#X connect 332 0 327 0;
#X connect 333 0 335 0;
#X connect 334 0 333 0;
#X connect 339 0 135 0;
#X connect 339 0 262 0;
#X connect 339 1 134 0;
#X connect 339 1 263 0;
#X connect 339 2 133 0;
#X connect 339 2 264 0;
#X connect 339 3 132 0;
#X connect 339 3 265 0;
#X connect 339 3 126 0;
#X connect 339 4 126 0;
#X connect 342 0 353 0;
#X connect 347 0 342 0;
#X connect 347 0 354 0;
#X connect 348 0 342 1;
#X connect 350 0 342 0;
#X connect 350 0 354 0;
#X connect 351 0 342 0;
#X connect 351 0 354 0;
#X connect 352 0 342 0;
#X connect 352 0 354 0;
#X connect 353 0 349 0;
#X connect 353 0 349 1;
#X connect 354 0 349 0;
#X connect 354 0 349 1;
#X connect 355 0 354 1;
#X connect 356 0 353 1;
